<svg width="25" height="34" viewBox="0 0 25 34" fill="none" xmlns="http://www.w3.org/2000/svg">
<path d="M12.5 7.65C13.684 7.65 14.8195 8.09777 15.6567 8.8948C16.4939 9.69183 16.9643 10.7728 16.9643 11.9C16.9643 12.4581 16.8488 13.0108 16.6245 13.5264C16.4001 14.042 16.0713 14.5106 15.6567 14.9052C15.2422 15.2999 14.75 15.6129 14.2084 15.8265C13.6668 16.0401 13.0863 16.15 12.5 16.15C11.316 16.15 10.1805 15.7022 9.34327 14.9052C8.50606 14.1082 8.03571 13.0272 8.03571 11.9C8.03571 10.7728 8.50606 9.69183 9.34327 8.8948C10.1805 8.09777 11.316 7.65 12.5 7.65ZM12.5 0C15.8152 0 18.9946 1.25375 21.3388 3.48543C23.683 5.71711 25 8.74392 25 11.9C25 20.825 12.5 34 12.5 34C12.5 34 0 20.825 0 11.9C0 8.74392 1.31696 5.71711 3.66116 3.48543C6.00537 1.25375 9.18479 0 12.5 0ZM12.5 3.4C10.132 3.4 7.86098 4.29553 6.18655 5.88959C4.51211 7.48365 3.57143 9.64566 3.57143 11.9C3.57143 13.6 3.57143 17 12.5 28.407C21.4286 17 21.4286 13.6 21.4286 11.9C21.4286 9.64566 20.4879 7.48365 18.8135 5.88959C17.139 4.29553 14.868 3.4 12.5 3.4Z" fill="#707070"/>
</svg>
