<svg width="30" height="30" viewBox="0 0 30 30" fill="none" xmlns="http://www.w3.org/2000/svg">
<path d="M4.28572 30C3.10715 30 2.09786 29.58 1.25786 28.74C0.417861 27.9 -0.00142493 26.8914 3.63813e-06 25.7143V4.28572C3.63813e-06 3.10715 0.420004 2.09786 1.26 1.25786C2.1 0.417862 3.10857 -0.00142493 4.28572 3.63811e-06H25.7143C26.8929 3.63811e-06 27.9021 0.420004 28.7421 1.26C29.5821 2.1 30.0014 3.10858 30 4.28572V25.7143C30 26.8929 29.58 27.9021 28.74 28.7421C27.9 29.5821 26.8914 30.0014 25.7143 30H4.28572ZM4.28572 25.7143H25.7143V4.28572H4.28572V25.7143ZM8.57143 21.4286H21.4286C21.8571 21.4286 22.1786 21.2321 22.3929 20.8393C22.6071 20.4464 22.5714 20.0714 22.2857 19.7143L18.8036 15.0536C18.5893 14.7679 18.3036 14.625 17.9464 14.625C17.5893 14.625 17.3036 14.7679 17.0893 15.0536L13.9286 19.2857L11.8393 16.5C11.625 16.2143 11.3393 16.0714 10.9821 16.0714C10.625 16.0714 10.3393 16.2143 10.125 16.5L7.71429 19.7143C7.42857 20.0714 7.39286 20.4464 7.60714 20.8393C7.82143 21.2321 8.14286 21.4286 8.57143 21.4286Z" fill="#707070"/>
</svg>
