<svg width="30" height="30" viewBox="0 0 30 30" fill="none" xmlns="http://www.w3.org/2000/svg">
<path d="M3.75 26.5714H9.375V16.2857H20.625V26.5714H26.25V11.1429L15 3.42857L3.75 11.1429V26.5714ZM3.75 30C2.71875 30 1.83563 29.664 1.10063 28.992C0.365628 28.32 -0.00124682 27.5131 3.18336e-06 26.5714V11.1429C3.18336e-06 10.6 0.133128 10.0857 0.399378 9.6C0.665628 9.11429 1.0325 8.71428 1.5 8.4L12.75 0.685714C13.0937 0.457143 13.4531 0.285714 13.8281 0.171428C14.2031 0.0571427 14.5937 0 15 0C15.4062 0 15.7969 0.0571427 16.1719 0.171428C16.5469 0.285714 16.9062 0.457143 17.25 0.685714L28.5 8.4C28.9687 8.71428 29.3362 9.11429 29.6025 9.6C29.8687 10.0857 30.0012 10.6 30 11.1429V26.5714C30 27.5143 29.6325 28.3217 28.8975 28.9937C28.1625 29.6657 27.28 30.0011 26.25 30H16.875V19.7143H13.125V30H3.75Z" fill="#707070"/>
</svg>
