<svg width="46" height="46" viewBox="0 0 46 46" fill="none" xmlns="http://www.w3.org/2000/svg">
<path d="M4.59796 20.7C5.18425 20.7006 5.74816 20.9251 6.17448 21.3276C6.6008 21.73 6.85735 22.28 6.89171 22.8652C6.92607 23.4504 6.73565 24.0267 6.35935 24.4762C5.98305 24.9258 5.44928 25.2147 4.86709 25.2839L4.59796 25.3H2.29771C1.71142 25.2993 1.14751 25.0749 0.721185 24.6724C0.294865 24.27 0.0383157 23.72 0.00395652 23.1348C-0.0304027 22.5496 0.160021 21.9733 0.536321 21.5238C0.91262 21.0742 1.44639 20.7853 2.02858 20.7161L2.29771 20.7H4.59796ZM23 0C23.5634 7.43143e-05 24.1072 0.206899 24.5282 0.581245C24.9493 0.955591 25.2182 1.47142 25.2842 2.0309L25.3003 2.3V4.6C25.2996 5.18622 25.0751 5.75007 24.6726 6.17635C24.2702 6.60262 23.7201 6.85914 23.1348 6.8935C22.5495 6.92785 21.9732 6.73745 21.5236 6.36119C21.074 5.98493 20.7851 5.45122 20.7158 4.8691L20.6997 4.6V2.3C20.6997 1.69 20.9421 1.10499 21.3735 0.673654C21.8049 0.242321 22.3899 0 23 0ZM43.7023 20.7C44.2886 20.7006 44.8525 20.9251 45.2788 21.3276C45.7051 21.73 45.9617 22.28 45.996 22.8652C46.0304 23.4504 45.84 24.0267 45.4637 24.4762C45.0874 24.9258 44.5536 25.2147 43.9714 25.2839L43.7023 25.3H41.402C40.8158 25.2993 40.2518 25.0749 39.8255 24.6724C39.3992 24.27 39.1426 23.72 39.1083 23.1348C39.0739 22.5496 39.2644 21.9733 39.6407 21.5238C40.0169 21.0742 40.5507 20.7853 41.1329 20.7161L41.402 20.7H43.7023ZM6.65209 6.6539C7.04818 6.25789 7.57516 6.02 8.13419 5.98485C8.69321 5.94971 9.24585 6.11972 9.68843 6.463L9.90465 6.6539L11.5148 8.2639C11.9274 8.6778 12.1669 9.2332 12.1847 9.81728C12.2026 10.4014 11.9974 10.9703 11.6109 11.4086C11.2243 11.8469 10.6855 12.1217 10.1037 12.1771C9.52189 12.2325 8.94082 12.0644 8.47849 11.707L8.26227 11.5161L6.65209 9.9061C6.22086 9.47479 5.97861 8.88988 5.97861 8.28C5.97861 7.67012 6.22086 7.08521 6.65209 6.6539ZM36.0954 6.6539C36.5093 6.2414 37.0648 6.00191 37.6489 5.98408C38.2331 5.96624 38.8021 6.17139 39.2404 6.55787C39.6788 6.94435 39.9536 7.48317 40.009 8.06489C40.0644 8.64661 39.8963 9.22762 39.5388 9.6899L39.3479 9.9061L37.7377 11.5161C37.3238 11.9286 36.7683 12.1681 36.1842 12.1859C35.6 12.2038 35.031 11.9986 34.5926 11.6121C34.1543 11.2257 33.8795 10.6868 33.8241 10.1051C33.7687 9.52339 33.9368 8.94238 34.2943 8.4801L34.4852 8.2639L36.0954 6.6539ZM27.6005 36.8C28.2106 36.8 28.7957 37.0423 29.227 37.4737C29.6584 37.905 29.9008 38.49 29.9008 39.1C29.9008 40.93 29.1737 42.685 27.8796 43.979C26.5854 45.273 24.8302 46 23 46C21.1698 46 19.4146 45.273 18.1204 43.979C16.8263 42.685 16.0992 40.93 16.0992 39.1C16.0993 38.5367 16.3062 37.9929 16.6805 37.5719C17.0549 37.151 17.5708 36.882 18.1304 36.8161L18.3995 36.8H27.6005ZM23 9.2C25.8967 9.2 28.72 10.1113 31.0699 11.8049C33.4198 13.4984 35.1773 15.8883 36.0933 18.6361C37.0093 21.3838 37.0374 24.3501 36.1737 27.1147C35.31 29.8793 33.5983 32.3022 31.2809 34.04C30.9639 34.2781 30.5907 34.4302 30.1975 34.4816L29.9008 34.5H16.0992C15.6015 34.5 15.1172 34.3386 14.7191 34.04C12.4017 32.3022 10.69 29.8793 9.82625 27.1147C8.96255 24.3501 8.9907 21.3838 9.90672 18.6361C10.8227 15.8883 12.5802 13.4984 14.9301 11.8049C17.28 10.1113 20.1033 9.2 23 9.2Z" fill="#707070"/>
</svg>
