<?xml version="1.0" encoding="UTF-8"?>
<svg id="Layer_1" data-name="Layer 1" xmlns="http://www.w3.org/2000/svg" viewBox="0 0 454.96 375.13">
  <defs>
    <style>
      .cls-1 {
        fill: #fff;
      }

      .cls-2 {
        fill: #707273;
      }

      .cls-3 {
        fill: #f9d30c;
      }
    </style>
  </defs>
  <g>
    <g>
      <path class="cls-3" d="M266.56,49.05c-47.52,0-89.42,24.06-114.2,60.65h-25.59v154.32h25.59c24.78,36.6,66.68,60.65,114.2,60.65,76.11,0,137.81-61.7,137.81-137.81S342.67,49.05,266.56,49.05Z"/>
      <g>
        <g>
          <circle class="cls-1" cx="266.56" cy="186.86" r="29.42"/>
          <path class="cls-2" d="M266.56,227.96c-22.67,0-41.11-18.44-41.11-41.11s18.44-41.11,41.11-41.11,41.11,18.44,41.11,41.11-18.44,41.11-41.11,41.11Zm0-58.84c-9.78,0-17.73,7.96-17.73,17.73s7.96,17.73,17.73,17.73,17.73-7.96,17.73-17.73-7.96-17.73-17.73-17.73Z"/>
        </g>
        <rect class="cls-2" x="126.76" y="175.17" width="117.99" height="23.38"/>
      </g>
    </g>
    <path class="cls-2" d="M34.53,277.82c-16.36,0-29.68-13.31-29.68-29.68V125.57c0-16.36,13.31-29.68,29.68-29.68s29.68,13.31,29.68,29.68v122.57c0,16.36-13.31,29.68-29.68,29.68Zm0-158.54c-3.47,0-6.3,2.83-6.3,6.3v122.57c0,3.47,2.83,6.3,6.3,6.3s6.3-2.83,6.3-6.3V125.57c0-3.47-2.83-6.3-6.3-6.3Z"/>
    <path class="cls-2" d="M93.07,295.8c-20.06,0-36.38-16.32-36.38-36.38V114.29c0-20.06,16.32-36.38,36.38-36.38s36.38,16.32,36.38,36.38v145.13c0,20.06-16.32,36.38-36.38,36.38Zm0-194.52c-7.17,0-13.01,5.84-13.01,13.01v145.13c0,7.17,5.83,13.01,13.01,13.01s13.01-5.83,13.01-13.01V114.29c0-7.17-5.84-13.01-13.01-13.01Z"/>
  </g>
  <g>
    <rect class="cls-2" x="249.12" y="3.89" width="34.51" height="34.51"/>
    <rect class="cls-2" x="165.67" y="26.25" width="34.51" height="34.51" transform="translate(2.76 97.29) rotate(-30)"/>
    <rect class="cls-2" x="165.67" y="315.33" width="34.51" height="34.51" transform="translate(175.05 712.08) rotate(-150)"/>
    <rect class="cls-2" x="249.12" y="337.69" width="34.51" height="34.51" transform="translate(532.76 709.89) rotate(-180)"/>
    <rect class="cls-2" x="332.58" y="315.33" width="34.51" height="34.51" transform="translate(819.08 445.7) rotate(150)"/>
    <rect class="cls-2" x="393.67" y="254.24" width="34.51" height="34.51" transform="translate(851.5 51.38) rotate(120)"/>
    <rect class="cls-2" x="416.03" y="170.79" width="34.51" height="34.51" transform="translate(621.32 -245.24) rotate(90)"/>
    <rect class="cls-2" x="393.67" y="87.34" width="34.51" height="34.51" transform="translate(296.04 -303.57) rotate(60)"/>
    <rect class="cls-2" x="332.58" y="26.25" width="34.51" height="34.51" transform="translate(68.62 -169.09) rotate(30)"/>
  </g>
</svg>