<svg width="45" height="46" viewBox="0 0 45 46" fill="none" xmlns="http://www.w3.org/2000/svg">
<path d="M22.5 0C10.096 0 0 9.95889 0 22.195C0 28.5661 2.82127 34.592 7.7643 38.847V44.712C7.7643 45.149 7.9974 45.5861 8.39385 45.816C8.60355 45.931 8.83687 46 9.06997 46C9.2799 46 9.513 45.9541 9.69952 45.8391L14.9922 43.0561C17.4638 43.953 19.9818 44.39 22.5 44.39C34.9043 44.39 45 34.4311 45 22.195C45 9.95889 34.9043 0 22.5 0ZM27.1399 28.681C26.6735 29.5089 25.5544 29.716 24.8317 29.095L19.5856 24.794C19.0726 24.3801 18.3499 24.3339 17.7669 24.6791L10.3291 29.463L16.8343 17.319C17.2773 16.468 18.4196 16.2609 19.1657 16.8591L24.3886 21.16C24.9248 21.5971 25.6943 21.6199 26.2539 21.2291L34.6709 15.3181L27.1399 28.681Z" fill="#707070"/>
</svg>
