<svg width="46" height="46" viewBox="0 0 46 46" fill="none" xmlns="http://www.w3.org/2000/svg">
<path d="M45.9974 34.2956V43.332C45.9977 43.979 45.7526 44.602 45.3116 45.0754C44.8705 45.5487 44.2663 45.8372 43.6209 45.8824C42.505 45.9608 41.5936 46 40.8866 46C18.3044 46 0 27.6946 0 5.11111C0 4.40578 0.039183 3.4943 0.117549 2.37667C0.162837 1.73125 0.451238 1.12703 0.924558 0.685934C1.39788 0.24484 2.02088 -0.00029244 2.66785 6.55703e-07H11.7038C12.0208 -0.000320299 12.3265 0.117195 12.5617 0.329719C12.7969 0.542243 12.9447 0.834601 12.9764 1.15C13.0343 1.73607 13.0888 2.2063 13.1399 2.56067C13.6477 6.10503 14.6885 9.55225 16.2269 12.7854C16.4696 13.2966 16.3112 13.9073 15.8512 14.2344L10.3366 18.1751C13.7091 26.0316 19.9699 32.2927 27.8259 35.6653L31.7612 30.1607C31.9214 29.935 32.1561 29.773 32.424 29.7034C32.6918 29.6337 32.9757 29.6608 33.2255 29.7799C36.4581 31.3155 39.9043 32.3537 43.4471 32.8593C43.8015 32.9104 44.27 32.965 44.8526 33.0229C45.1675 33.0552 45.4593 33.2032 45.6712 33.4384C45.8832 33.6735 45.9978 33.979 45.9974 34.2956Z" fill="#707070"/>
</svg>
