<svg width="45" height="31" viewBox="0 0 45 31" fill="none" xmlns="http://www.w3.org/2000/svg">
<path d="M12.5 30.5H2.50001C1.79168 30.5 1.19751 30.256 0.717508 29.768C0.237508 29.28 -0.00165802 28.6768 8.65052e-06 27.9583C8.65052e-06 27.2382 0.240009 26.6341 0.720009 26.1461C1.20001 25.6581 1.79334 25.415 2.50001 25.4167H12.5C13.2083 25.4167 13.8025 25.6607 14.2825 26.1487C14.7625 26.6367 15.0017 27.2399 15 27.9583C15 28.6785 14.76 29.2826 14.28 29.7705C13.8 30.2586 13.2067 30.5017 12.5 30.5ZM42.5 5.08334H2.50001C1.79168 5.08334 1.19751 4.83934 0.717508 4.35134C0.237508 3.86334 -0.00165802 3.26012 8.65052e-06 2.54168C8.65052e-06 1.82154 0.240009 1.21747 0.720009 0.729468C1.20001 0.241468 1.79334 -0.00168565 2.50001 8.79468e-06H42.5C43.2083 8.79468e-06 43.8025 0.244009 44.2825 0.732009C44.7625 1.22001 45.0017 1.82323 45 2.54168C45 3.26181 44.76 3.86588 44.28 4.35388C43.8 4.84188 43.2067 5.08504 42.5 5.08334ZM27.5 17.7917H2.50001C1.79168 17.7917 1.19751 17.5477 0.717508 17.0597C0.237508 16.5717 -0.00165802 15.9685 8.65052e-06 15.25C8.65052e-06 14.5299 0.240009 13.9258 0.720009 13.4378C1.20001 12.9498 1.79334 12.7066 2.50001 12.7083H27.5C28.2083 12.7083 28.8025 12.9523 29.2825 13.4403C29.7625 13.9283 30.0017 14.5316 30 15.25C30 15.9701 29.76 16.5742 29.28 17.0622C28.8 17.5502 28.2067 17.7934 27.5 17.7917Z" fill="#707070"/>
</svg>
