<?xml version="1.0" encoding="utf-8"?>
<!-- Generator: Adobe Illustrator 27.0.1, SVG Export Plug-In . SVG Version: 6.00 Build 0)  -->
<svg version="1.1" id="Layer_1" xmlns="http://www.w3.org/2000/svg" xmlns:xlink="http://www.w3.org/1999/xlink" x="0px" y="0px"
	 viewBox="0 0 144 144" style="enable-background:new 0 0 144 144;" xml:space="preserve">
<style type="text/css">
	.st0{fill:#FFFFFF;}
	.st1{fill:#00CC93;}
	.st2{fill:#000E40;}
	.st3{fill:#707070;}
</style>
<g>
	<g>
		<g>
			<path class="st3" d="M4.62,54.77c0-1.94,0.85-3.85,2.49-5.15c2.84-2.25,6.97-1.78,9.23,1.06L72,120.86l55.67-70.17
				c2.25-2.84,6.38-3.32,9.23-1.06c2.84,2.25,3.32,6.38,1.06,9.23l-60.81,76.66C75.9,137.08,74,138,72,138c-2,0-3.9-0.92-5.15-2.49
				L6.04,58.85C5.08,57.64,4.62,56.2,4.62,54.77z"/>
		</g>
		<g>
			<path class="st3" d="M4.62,12.58c0-1.94,0.85-3.85,2.49-5.15c2.84-2.25,6.97-1.78,9.23,1.06L72,78.66l55.67-70.17
				c2.25-2.84,6.38-3.32,9.23-1.06c2.84,2.26,3.32,6.39,1.06,9.23L77.15,93.31C75.9,94.88,74,95.8,72,95.8c-2,0-3.9-0.92-5.15-2.49
				L6.04,16.65C5.08,15.45,4.62,14.01,4.62,12.58z"/>
		</g>
	</g>
</g>
</svg>
